<svg width="960" height="600" viewBox="0 0 960 600" fill="none" xmlns="http://www.w3.org/2000/svg">
  <rect width="960" height="600" fill="#15130E"/>
  <path d="M0 0h960v600H0z" fill="url(#bg)"/>
  <g opacity=".98" filter="url(#soft)">
    <path d="M61 382 191 307l130 75v150l-130 75-130-75V382Z" fill="#8E5900"/>
    <path d="M168 220 314 136l146 84v168l-146 84-146-84V220Z" fill="#AA6C00"/>
    <path d="M378 151 543 56l165 95v190l-165 95-165-95V151Z" fill="#D09100"/>
    <path d="M585 206 745 114l160 92v184l-160 92-160-92V206Z" fill="#F0AF16"/>
    <path d="M603 391 746 308l143 83v166l-143 83-143-83V391Z" fill="#FFD566"/>
  </g>
  <g filter="url(#shadow)">
    <path d="M480 54 724 195v210L480 546 236 405V195L480 54Z" fill="url(#coin)" stroke="#FFF6C8" stroke-width="18"/>
    <path d="M480 120 652 219v162L480 480 308 381V219L480 120Z" fill="none" stroke="#8D5600" stroke-width="10" opacity=".55"/>
    <text x="480" y="363" text-anchor="middle" font-family="Arial Black, Arial, sans-serif" font-size="220" font-weight="900" fill="#281700">P</text>
  </g>
  <text x="72" y="88" font-family="Arial, sans-serif" font-size="30" font-weight="800" fill="#FFD54A">50.000 POLLENS</text>
  <defs>
    <linearGradient id="bg" x1="91" y1="36" x2="862" y2="552" gradientUnits="userSpaceOnUse"><stop stop-color="#483409"/><stop offset=".48" stop-color="#18181B"/><stop offset="1" stop-color="#543905"/></linearGradient>
    <linearGradient id="coin" x1="309" y1="83" x2="660" y2="513" gradientUnits="userSpaceOnUse"><stop stop-color="#FFFFE7"/><stop offset=".23" stop-color="#FFE576"/><stop offset=".62" stop-color="#DB8E00"/><stop offset="1" stop-color="#FFF7D0"/></linearGradient>
    <filter id="shadow" x="154" y="-16" width="652" height="640" filterUnits="userSpaceOnUse"><feDropShadow dx="0" dy="38" stdDeviation="38" flood-color="#000" flood-opacity=".56"/></filter>
    <filter id="soft" x="11" y="6" width="944" height="684" filterUnits="userSpaceOnUse"><feGaussianBlur stdDeviation="8"/></filter>
  </defs>
</svg>
