<svg xmlns="http://www.w3.org/2000/svg" viewBox="0 0 1200 300" preserveAspectRatio="xMaxYMid slice"><defs><linearGradient id="lf" x1="0" y1="0" x2="1" y2="0"><stop offset="0" stop-color="#F4F2EE" stop-opacity="1"/><stop offset=".28" stop-color="#F4F2EE" stop-opacity="0"/></linearGradient></defs><rect width="1200" height="300" fill="#F4F2EE"/><g transform="translate(180 -10)"><rect x="-10" y="150.8" width="29.2" height="99.2" fill="#D7141A" fill-opacity="0.45"/><rect x="17.5" y="93.7" width="64.4" height="156.3" fill="#D7141A" fill-opacity="0.45"/><rect x="36.8" y="79.7" width="25.8" height="14" fill="#D7141A" fill-opacity="0.45"/><rect x="48.4" y="53.7" width="3" height="40" fill="#D7141A" fill-opacity="0.45"/><rect x="87.5" y="147.2" width="68.9" height="102.8" fill="#D7141A" fill-opacity="0.45"/><rect x="120.5" y="107.2" width="3" height="40" fill="#D7141A" fill-opacity="0.45"/><rect x="156.9" y="41.7" width="48" height="208.3" fill="#D7141A" fill-opacity="0.45"/><rect x="171.3" y="27.7" width="19.2" height="14" fill="#D7141A" fill-opacity="0.45"/><rect x="196" y="119" width="71.3" height="131" fill="#D7141A" fill-opacity="0.45"/><rect x="261" y="34.9" width="44.2" height="215.1" fill="#D7141A" fill-opacity="0.45"/><rect x="306.9" y="68.3" width="39" height="181.7" fill="#D7141A" fill-opacity="0.45"/><rect x="318.7" y="54.3" width="15.6" height="14" fill="#D7141A" fill-opacity="0.45"/><rect x="349.1" y="70.7" width="37.1" height="179.3" fill="#D7141A" fill-opacity="0.45"/><rect x="381.3" y="93.6" width="58.6" height="156.4" fill="#D7141A" fill-opacity="0.45"/><rect x="433.1" y="75.4" width="40.5" height="174.6" fill="#D7141A" fill-opacity="0.45"/><rect x="472.1" y="41" width="63.2" height="209" fill="#D7141A" fill-opacity="0.45"/><rect x="527.5" y="150.2" width="36.4" height="99.8" fill="#D7141A" fill-opacity="0.45"/><rect x="568" y="66.5" width="31.2" height="183.5" fill="#D7141A" fill-opacity="0.45"/><rect x="577.3" y="52.5" width="12.5" height="14" fill="#D7141A" fill-opacity="0.45"/><rect x="598.5" y="124.9" width="43.2" height="125.1" fill="#D7141A" fill-opacity="0.45"/><rect x="636.3" y="26.2" width="52.5" height="223.8" fill="#D7141A" fill-opacity="0.45"/><rect x="685.6" y="136.9" width="47" height="113.1" fill="#D7141A" fill-opacity="0.45"/><rect x="736.6" y="29.6" width="58.8" height="220.4" fill="#D7141A" fill-opacity="0.45"/><rect x="800" y="39.1" width="52.2" height="210.9" fill="#D7141A" fill-opacity="0.45"/><rect x="851" y="88.1" width="39.4" height="161.9" fill="#D7141A" fill-opacity="0.45"/><rect x="885.6" y="46.3" width="39.3" height="203.7" fill="#D7141A" fill-opacity="0.45"/><rect x="897.4" y="32.3" width="15.7" height="14" fill="#D7141A" fill-opacity="0.45"/><rect x="929" y="86.7" width="58.5" height="163.3" fill="#D7141A" fill-opacity="0.45"/><rect x="989.7" y="31.3" width="61.4" height="218.7" fill="#D7141A" fill-opacity="0.45"/><rect x="1008.2" y="17.3" width="24.6" height="14" fill="#D7141A" fill-opacity="0.45"/><rect x="1048.4" y="132.9" width="56.7" height="117.1" fill="#D7141A" fill-opacity="0.45"/><rect x="1065.4" y="118.9" width="22.7" height="14" fill="#D7141A" fill-opacity="0.45"/><rect x="1101" y="19.6" width="33.8" height="230.4" fill="#D7141A" fill-opacity="0.45"/><rect x="-10" y="123.3" width="65.8" height="126.7" fill="#8E0B10" fill-opacity="0.92"/><rect x="9.8" y="109.3" width="26.3" height="14" fill="#8E0B10" fill-opacity="0.92"/><rect x="5.7" y="133.3" width="8.2" height="6" fill="#FFFFFF" fill-opacity="0.39"/><rect x="18.8" y="133.3" width="8.2" height="6" fill="#FFFFFF" fill-opacity="0.65"/><rect x="45.2" y="133.3" width="8.2" height="6" fill="#FFFFFF" fill-opacity="0.45999999999999996"/><rect x="5.7" y="145.3" width="8.2" height="6" fill="#FFFFFF" fill-opacity="0.8300000000000001"/><rect x="18.8" y="145.3" width="8.2" height="6" fill="#FFFFFF" fill-opacity="0.6"/><rect x="45.2" y="145.3" width="8.2" height="6" fill="#FFFFFF" fill-opacity="0.45999999999999996"/><rect x="-7.5" y="157.3" width="8.2" height="6" fill="#FFFFFF" fill-opacity="0.6599999999999999"/><rect x="5.7" y="157.3" width="8.2" height="6" fill="#FFFFFF" fill-opacity="0.65"/><rect x="18.8" y="157.3" width="8.2" height="6" fill="#FFFFFF" fill-opacity="0.6900000000000001"/><rect x="32" y="157.3" width="8.2" height="6" fill="#FFFFFF" fill-opacity="0.61"/><rect x="-7.5" y="169.3" width="8.2" height="6" fill="#FFFFFF" fill-opacity="0.54"/><rect x="32" y="169.3" width="8.2" height="6" fill="#FFFFFF" fill-opacity="0.8"/><rect x="45.2" y="169.3" width="8.2" height="6" fill="#FFFFFF" fill-opacity="0.8099999999999999"/><rect x="-7.5" y="181.3" width="8.2" height="6" fill="#FFFFFF" fill-opacity="0.49000000000000005"/><rect x="45.2" y="181.3" width="8.2" height="6" fill="#FFFFFF" fill-opacity="0.5"/><rect x="18.8" y="193.3" width="8.2" height="6" fill="#FFFFFF" fill-opacity="0.55"/><rect x="32" y="193.3" width="8.2" height="6" fill="#FFFFFF" fill-opacity="0.71"/><rect x="45.2" y="193.3" width="8.2" height="6" fill="#FFFFFF" fill-opacity="0.58"/><rect x="5.7" y="205.3" width="8.2" height="6" fill="#FFFFFF" fill-opacity="0.45"/><rect x="18.8" y="205.3" width="8.2" height="6" fill="#FFFFFF" fill-opacity="0.77"/><rect x="32" y="205.3" width="8.2" height="6" fill="#FFFFFF" fill-opacity="0.49000000000000005"/><rect x="45.2" y="205.3" width="8.2" height="6" fill="#FFFFFF" fill-opacity="0.77"/><rect x="-7.5" y="217.3" width="8.2" height="6" fill="#FFFFFF" fill-opacity="0.39"/><rect x="18.8" y="217.3" width="8.2" height="6" fill="#FFFFFF" fill-opacity="0.6900000000000001"/><rect x="32" y="217.3" width="8.2" height="6" fill="#FFFFFF" fill-opacity="0.44000000000000006"/><rect x="45.2" y="229.3" width="8.2" height="6" fill="#FFFFFF" fill-opacity="0.5700000000000001"/><rect x="-7.5" y="241.3" width="8.2" height="6" fill="#FFFFFF" fill-opacity="0.6"/><rect x="45.2" y="241.3" width="8.2" height="6" fill="#FFFFFF" fill-opacity="0.73"/><rect x="60.7" y="140.5" width="55.4" height="109.5" fill="#8E0B10" fill-opacity="0.92"/><rect x="74.2" y="150.5" width="6.1" height="6" fill="#FFFFFF" fill-opacity="0.77"/><rect x="96.4" y="150.5" width="6.1" height="6" fill="#FFFFFF" fill-opacity="0.67"/><rect x="74.2" y="162.5" width="6.1" height="6" fill="#FFFFFF" fill-opacity="0.76"/><rect x="63.2" y="174.5" width="6.1" height="6" fill="#FFFFFF" fill-opacity="0.49000000000000005"/><rect x="74.2" y="174.5" width="6.1" height="6" fill="#FFFFFF" fill-opacity="0.36"/><rect x="85.3" y="174.5" width="6.1" height="6" fill="#FFFFFF" fill-opacity="0.43"/><rect x="107.5" y="174.5" width="6.1" height="6" fill="#FFFFFF" fill-opacity="0.44000000000000006"/><rect x="63.2" y="186.5" width="6.1" height="6" fill="#FFFFFF" fill-opacity="0.77"/><rect x="96.4" y="186.5" width="6.1" height="6" fill="#FFFFFF" fill-opacity="0.8300000000000001"/><rect x="107.5" y="198.5" width="6.1" height="6" fill="#FFFFFF" fill-opacity="0.67"/><rect x="63.2" y="210.5" width="6.1" height="6" fill="#FFFFFF" fill-opacity="0.35"/><rect x="74.2" y="210.5" width="6.1" height="6" fill="#FFFFFF" fill-opacity="0.63"/><rect x="107.5" y="210.5" width="6.1" height="6" fill="#FFFFFF" fill-opacity="0.4"/><rect x="63.2" y="222.5" width="6.1" height="6" fill="#FFFFFF" fill-opacity="0.36"/><rect x="85.3" y="222.5" width="6.1" height="6" fill="#FFFFFF" fill-opacity="0.8"/><rect x="107.5" y="222.5" width="6.1" height="6" fill="#FFFFFF" fill-opacity="0.4"/><rect x="63.2" y="234.5" width="6.1" height="6" fill="#FFFFFF" fill-opacity="0.8099999999999999"/><rect x="107.5" y="234.5" width="6.1" height="6" fill="#FFFFFF" fill-opacity="0.6900000000000001"/><rect x="120.2" y="108.2" width="57.3" height="141.8" fill="#8E0B10" fill-opacity="0.92"/><rect x="147.7" y="68.2" width="3" height="40" fill="#8E0B10" fill-opacity="0.92"/><rect x="122.7" y="118.2" width="6.5" height="6" fill="#FFFFFF" fill-opacity="0.54"/><rect x="134.2" y="118.2" width="6.5" height="6" fill="#FFFFFF" fill-opacity="0.52"/><rect x="145.6" y="118.2" width="6.5" height="6" fill="#FFFFFF" fill-opacity="0.75"/><rect x="157.1" y="118.2" width="6.5" height="6" fill="#FFFFFF" fill-opacity="0.5"/><rect x="168.6" y="118.2" width="6.5" height="6" fill="#FFFFFF" fill-opacity="0.72"/><rect x="122.7" y="130.2" width="6.5" height="6" fill="#FFFFFF" fill-opacity="0.53"/><rect x="145.6" y="130.2" width="6.5" height="6" fill="#FFFFFF" fill-opacity="0.63"/><rect x="157.1" y="130.2" width="6.5" height="6" fill="#FFFFFF" fill-opacity="0.47000000000000003"/><rect x="168.6" y="130.2" width="6.5" height="6" fill="#FFFFFF" fill-opacity="0.67"/><rect x="122.7" y="142.2" width="6.5" height="6" fill="#FFFFFF" fill-opacity="0.6900000000000001"/><rect x="168.6" y="142.2" width="6.5" height="6" fill="#FFFFFF" fill-opacity="0.43"/><rect x="122.7" y="166.2" width="6.5" height="6" fill="#FFFFFF" fill-opacity="0.73"/><rect x="157.1" y="166.2" width="6.5" height="6" fill="#FFFFFF" fill-opacity="0.37"/><rect x="157.1" y="178.2" width="6.5" height="6" fill="#FFFFFF" fill-opacity="0.44000000000000006"/><rect x="168.6" y="178.2" width="6.5" height="6" fill="#FFFFFF" fill-opacity="0.45999999999999996"/><rect x="134.2" y="190.2" width="6.5" height="6" fill="#FFFFFF" fill-opacity="0.36"/><rect x="145.6" y="190.2" width="6.5" height="6" fill="#FFFFFF" fill-opacity="0.6799999999999999"/><rect x="157.1" y="190.2" width="6.5" height="6" fill="#FFFFFF" fill-opacity="0.48"/><rect x="134.2" y="202.2" width="6.5" height="6" fill="#FFFFFF" fill-opacity="0.54"/><rect x="157.1" y="202.2" width="6.5" height="6" fill="#FFFFFF" fill-opacity="0.38"/><rect x="168.6" y="202.2" width="6.5" height="6" fill="#FFFFFF" fill-opacity="0.36"/><rect x="122.7" y="214.2" width="6.5" height="6" fill="#FFFFFF" fill-opacity="0.44000000000000006"/><rect x="157.1" y="214.2" width="6.5" height="6" fill="#FFFFFF" fill-opacity="0.6799999999999999"/><rect x="168.6" y="214.2" width="6.5" height="6" fill="#FFFFFF" fill-opacity="0.58"/><rect x="122.7" y="238.2" width="6.5" height="6" fill="#FFFFFF" fill-opacity="0.49000000000000005"/><rect x="134.2" y="238.2" width="6.5" height="6" fill="#FFFFFF" fill-opacity="0.42000000000000004"/><rect x="157.1" y="238.2" width="6.5" height="6" fill="#FFFFFF" fill-opacity="0.37"/><rect x="168.6" y="238.2" width="6.5" height="6" fill="#FFFFFF" fill-opacity="0.58"/><rect x="183.7" y="102.3" width="55.2" height="147.7" fill="#8E0B10" fill-opacity="0.92"/><rect x="197.3" y="112.3" width="6" height="6" fill="#FFFFFF" fill-opacity="0.7"/><rect x="208.3" y="112.3" width="6" height="6" fill="#FFFFFF" fill-opacity="0.6"/><rect x="186.2" y="124.3" width="6" height="6" fill="#FFFFFF" fill-opacity="0.48"/><rect x="197.3" y="124.3" width="6" height="6" fill="#FFFFFF" fill-opacity="0.67"/><rect x="208.3" y="124.3" width="6" height="6" fill="#FFFFFF" fill-opacity="0.61"/><rect x="219.3" y="124.3" width="6" height="6" fill="#FFFFFF" fill-opacity="0.52"/><rect x="219.3" y="136.3" width="6" height="6" fill="#FFFFFF" fill-opacity="0.38"/><rect x="230.4" y="136.3" width="6" height="6" fill="#FFFFFF" fill-opacity="0.72"/><rect x="208.3" y="148.3" width="6" height="6" fill="#FFFFFF" fill-opacity="0.5"/><rect x="219.3" y="148.3" width="6" height="6" fill="#FFFFFF" fill-opacity="0.53"/><rect x="230.4" y="148.3" width="6" height="6" fill="#FFFFFF" fill-opacity="0.38"/><rect x="186.2" y="160.3" width="6" height="6" fill="#FFFFFF" fill-opacity="0.49000000000000005"/><rect x="197.3" y="160.3" width="6" height="6" fill="#FFFFFF" fill-opacity="0.61"/><rect x="208.3" y="160.3" width="6" height="6" fill="#FFFFFF" fill-opacity="0.41"/><rect x="219.3" y="160.3" width="6" height="6" fill="#FFFFFF" fill-opacity="0.39"/><rect x="186.2" y="172.3" width="6" height="6" fill="#FFFFFF" fill-opacity="0.7"/><rect x="208.3" y="172.3" width="6" height="6" fill="#FFFFFF" fill-opacity="0.5700000000000001"/><rect x="197.3" y="184.3" width="6" height="6" fill="#FFFFFF" fill-opacity="0.61"/><rect x="208.3" y="184.3" width="6" height="6" fill="#FFFFFF" fill-opacity="0.6599999999999999"/><rect x="219.3" y="184.3" width="6" height="6" fill="#FFFFFF" fill-opacity="0.45999999999999996"/><rect x="230.4" y="184.3" width="6" height="6" fill="#FFFFFF" fill-opacity="0.38"/><rect x="208.3" y="196.3" width="6" height="6" fill="#FFFFFF" fill-opacity="0.8300000000000001"/><rect x="219.3" y="196.3" width="6" height="6" fill="#FFFFFF" fill-opacity="0.45"/><rect x="197.3" y="208.3" width="6" height="6" fill="#FFFFFF" fill-opacity="0.41"/><rect x="219.3" y="220.3" width="6" height="6" fill="#FFFFFF" fill-opacity="0.48"/><rect x="208.3" y="232.3" width="6" height="6" fill="#FFFFFF" fill-opacity="0.62"/><rect x="240.3" y="67.9" width="67.7" height="182.1" fill="#8E0B10" fill-opacity="0.92"/><rect x="260.6" y="53.9" width="27.1" height="14" fill="#8E0B10" fill-opacity="0.92"/><rect x="242.8" y="77.9" width="6.3" height="6" fill="#FFFFFF" fill-opacity="0.75"/><rect x="254.1" y="77.9" width="6.3" height="6" fill="#FFFFFF" fill-opacity="0.77"/><rect x="276.7" y="77.9" width="6.3" height="6" fill="#FFFFFF" fill-opacity="0.77"/><rect x="299.2" y="77.9" width="6.3" height="6" fill="#FFFFFF" fill-opacity="0.64"/><rect x="242.8" y="89.9" width="6.3" height="6" fill="#FFFFFF" fill-opacity="0.8400000000000001"/><rect x="254.1" y="89.9" width="6.3" height="6" fill="#FFFFFF" fill-opacity="0.36"/><rect x="276.7" y="89.9" width="6.3" height="6" fill="#FFFFFF" fill-opacity="0.45"/><rect x="254.1" y="101.9" width="6.3" height="6" fill="#FFFFFF" fill-opacity="0.35"/><rect x="265.4" y="101.9" width="6.3" height="6" fill="#FFFFFF" fill-opacity="0.67"/><rect x="287.9" y="101.9" width="6.3" height="6" fill="#FFFFFF" fill-opacity="0.61"/><rect x="242.8" y="113.9" width="6.3" height="6" fill="#FFFFFF" fill-opacity="0.58"/><rect x="265.4" y="113.9" width="6.3" height="6" fill="#FFFFFF" fill-opacity="0.63"/><rect x="276.7" y="113.9" width="6.3" height="6" fill="#FFFFFF" fill-opacity="0.67"/><rect x="242.8" y="125.9" width="6.3" height="6" fill="#FFFFFF" fill-opacity="0.8099999999999999"/><rect x="254.1" y="125.9" width="6.3" height="6" fill="#FFFFFF" fill-opacity="0.51"/><rect x="299.2" y="125.9" width="6.3" height="6" fill="#FFFFFF" fill-opacity="0.77"/><rect x="242.8" y="137.9" width="6.3" height="6" fill="#FFFFFF" fill-opacity="0.45999999999999996"/><rect x="265.4" y="137.9" width="6.3" height="6" fill="#FFFFFF" fill-opacity="0.58"/><rect x="276.7" y="137.9" width="6.3" height="6" fill="#FFFFFF" fill-opacity="0.42000000000000004"/><rect x="299.2" y="137.9" width="6.3" height="6" fill="#FFFFFF" fill-opacity="0.47000000000000003"/><rect x="242.8" y="149.9" width="6.3" height="6" fill="#FFFFFF" fill-opacity="0.61"/><rect x="265.4" y="149.9" width="6.3" height="6" fill="#FFFFFF" fill-opacity="0.47000000000000003"/><rect x="276.7" y="149.9" width="6.3" height="6" fill="#FFFFFF" fill-opacity="0.38"/><rect x="299.2" y="149.9" width="6.3" height="6" fill="#FFFFFF" fill-opacity="0.61"/><rect x="254.1" y="161.9" width="6.3" height="6" fill="#FFFFFF" fill-opacity="0.35"/><rect x="265.4" y="161.9" width="6.3" height="6" fill="#FFFFFF" fill-opacity="0.52"/><rect x="287.9" y="161.9" width="6.3" height="6" fill="#FFFFFF" fill-opacity="0.54"/><rect x="299.2" y="161.9" width="6.3" height="6" fill="#FFFFFF" fill-opacity="0.6799999999999999"/><rect x="254.1" y="173.9" width="6.3" height="6" fill="#FFFFFF" fill-opacity="0.82"/><rect x="265.4" y="173.9" width="6.3" height="6" fill="#FFFFFF" fill-opacity="0.71"/><rect x="276.7" y="173.9" width="6.3" height="6" fill="#FFFFFF" fill-opacity="0.6"/><rect x="287.9" y="173.9" width="6.3" height="6" fill="#FFFFFF" fill-opacity="0.76"/><rect x="299.2" y="173.9" width="6.3" height="6" fill="#FFFFFF" fill-opacity="0.53"/><rect x="242.8" y="185.9" width="6.3" height="6" fill="#FFFFFF" fill-opacity="0.62"/><rect x="254.1" y="185.9" width="6.3" height="6" fill="#FFFFFF" fill-opacity="0.8099999999999999"/><rect x="276.7" y="185.9" width="6.3" height="6" fill="#FFFFFF" fill-opacity="0.77"/><rect x="287.9" y="185.9" width="6.3" height="6" fill="#FFFFFF" fill-opacity="0.8300000000000001"/><rect x="299.2" y="185.9" width="6.3" height="6" fill="#FFFFFF" fill-opacity="0.48"/><rect x="242.8" y="197.9" width="6.3" height="6" fill="#FFFFFF" fill-opacity="0.5599999999999999"/><rect x="254.1" y="197.9" width="6.3" height="6" fill="#FFFFFF" fill-opacity="0.42000000000000004"/><rect x="265.4" y="197.9" width="6.3" height="6" fill="#FFFFFF" fill-opacity="0.79"/><rect x="276.7" y="197.9" width="6.3" height="6" fill="#FFFFFF" fill-opacity="0.6"/><rect x="242.8" y="209.9" width="6.3" height="6" fill="#FFFFFF" fill-opacity="0.85"/><rect x="265.4" y="209.9" width="6.3" height="6" fill="#FFFFFF" fill-opacity="0.71"/><rect x="276.7" y="209.9" width="6.3" height="6" fill="#FFFFFF" fill-opacity="0.58"/><rect x="287.9" y="209.9" width="6.3" height="6" fill="#FFFFFF" fill-opacity="0.64"/><rect x="299.2" y="209.9" width="6.3" height="6" fill="#FFFFFF" fill-opacity="0.67"/><rect x="254.1" y="221.9" width="6.3" height="6" fill="#FFFFFF" fill-opacity="0.7"/><rect x="276.7" y="221.9" width="6.3" height="6" fill="#FFFFFF" fill-opacity="0.72"/><rect x="242.8" y="233.9" width="6.3" height="6" fill="#FFFFFF" fill-opacity="0.44000000000000006"/><rect x="265.4" y="233.9" width="6.3" height="6" fill="#FFFFFF" fill-opacity="0.48"/><rect x="276.7" y="233.9" width="6.3" height="6" fill="#FFFFFF" fill-opacity="0.6799999999999999"/><rect x="287.9" y="233.9" width="6.3" height="6" fill="#FFFFFF" fill-opacity="0.4"/><rect x="299.2" y="233.9" width="6.3" height="6" fill="#FFFFFF" fill-opacity="0.65"/><rect x="309.4" y="73.5" width="64.5" height="176.5" fill="#8E0B10" fill-opacity="0.92"/><rect x="328.8" y="59.5" width="25.8" height="14" fill="#8E0B10" fill-opacity="0.92"/><rect x="311.9" y="83.5" width="7.9" height="6" fill="#FFFFFF" fill-opacity="0.5"/><rect x="363.6" y="83.5" width="7.9" height="6" fill="#FFFFFF" fill-opacity="0.75"/><rect x="337.8" y="95.5" width="7.9" height="6" fill="#FFFFFF" fill-opacity="0.45999999999999996"/><rect x="311.9" y="107.5" width="7.9" height="6" fill="#FFFFFF" fill-opacity="0.49000000000000005"/><rect x="363.6" y="107.5" width="7.9" height="6" fill="#FFFFFF" fill-opacity="0.75"/><rect x="324.8" y="119.5" width="7.9" height="6" fill="#FFFFFF" fill-opacity="0.73"/><rect x="363.6" y="119.5" width="7.9" height="6" fill="#FFFFFF" fill-opacity="0.41"/><rect x="311.9" y="131.5" width="7.9" height="6" fill="#FFFFFF" fill-opacity="0.71"/><rect x="324.8" y="131.5" width="7.9" height="6" fill="#FFFFFF" fill-opacity="0.45999999999999996"/><rect x="337.8" y="131.5" width="7.9" height="6" fill="#FFFFFF" fill-opacity="0.63"/><rect x="363.6" y="131.5" width="7.9" height="6" fill="#FFFFFF" fill-opacity="0.74"/><rect x="311.9" y="143.5" width="7.9" height="6" fill="#FFFFFF" fill-opacity="0.47000000000000003"/><rect x="337.8" y="143.5" width="7.9" height="6" fill="#FFFFFF" fill-opacity="0.52"/><rect x="350.7" y="143.5" width="7.9" height="6" fill="#FFFFFF" fill-opacity="0.45999999999999996"/><rect x="363.6" y="143.5" width="7.9" height="6" fill="#FFFFFF" fill-opacity="0.67"/><rect x="311.9" y="155.5" width="7.9" height="6" fill="#FFFFFF" fill-opacity="0.61"/><rect x="350.7" y="155.5" width="7.9" height="6" fill="#FFFFFF" fill-opacity="0.8"/><rect x="350.7" y="167.5" width="7.9" height="6" fill="#FFFFFF" fill-opacity="0.79"/><rect x="363.6" y="167.5" width="7.9" height="6" fill="#FFFFFF" fill-opacity="0.49000000000000005"/><rect x="350.7" y="179.5" width="7.9" height="6" fill="#FFFFFF" fill-opacity="0.58"/><rect x="311.9" y="191.5" width="7.9" height="6" fill="#FFFFFF" fill-opacity="0.6799999999999999"/><rect x="324.8" y="191.5" width="7.9" height="6" fill="#FFFFFF" fill-opacity="0.85"/><rect x="337.8" y="191.5" width="7.9" height="6" fill="#FFFFFF" fill-opacity="0.7"/><rect x="350.7" y="191.5" width="7.9" height="6" fill="#FFFFFF" fill-opacity="0.63"/><rect x="363.6" y="191.5" width="7.9" height="6" fill="#FFFFFF" fill-opacity="0.8099999999999999"/><rect x="324.8" y="215.5" width="7.9" height="6" fill="#FFFFFF" fill-opacity="0.53"/><rect x="311.9" y="227.5" width="7.9" height="6" fill="#FFFFFF" fill-opacity="0.44000000000000006"/><rect x="337.8" y="227.5" width="7.9" height="6" fill="#FFFFFF" fill-opacity="0.67"/><rect x="350.7" y="227.5" width="7.9" height="6" fill="#FFFFFF" fill-opacity="0.55"/><rect x="363.6" y="227.5" width="7.9" height="6" fill="#FFFFFF" fill-opacity="0.7"/><rect x="324.8" y="239.5" width="7.9" height="6" fill="#FFFFFF" fill-opacity="0.6900000000000001"/><rect x="350.7" y="239.5" width="7.9" height="6" fill="#FFFFFF" fill-opacity="0.6799999999999999"/><rect x="363.6" y="239.5" width="7.9" height="6" fill="#FFFFFF" fill-opacity="0.4"/><rect x="375.7" y="158.7" width="29.4" height="91.3" fill="#8E0B10" fill-opacity="0.92"/><rect x="378.2" y="168.7" width="9.7" height="6" fill="#FFFFFF" fill-opacity="0.6799999999999999"/><rect x="378.2" y="180.7" width="9.7" height="6" fill="#FFFFFF" fill-opacity="0.36"/><rect x="392.9" y="192.7" width="9.7" height="6" fill="#FFFFFF" fill-opacity="0.71"/><rect x="378.2" y="204.7" width="9.7" height="6" fill="#FFFFFF" fill-opacity="0.6900000000000001"/><rect x="378.2" y="240.7" width="9.7" height="6" fill="#FFFFFF" fill-opacity="0.82"/><rect x="392.9" y="240.7" width="9.7" height="6" fill="#FFFFFF" fill-opacity="0.65"/><rect x="407.7" y="180.1" width="68.1" height="69.9" fill="#8E0B10" fill-opacity="0.92"/><rect x="444.3" y="190.1" width="6.4" height="6" fill="#FFFFFF" fill-opacity="0.43"/><rect x="410.2" y="202.1" width="6.4" height="6" fill="#FFFFFF" fill-opacity="0.79"/><rect x="421.6" y="202.1" width="6.4" height="6" fill="#FFFFFF" fill-opacity="0.63"/><rect x="410.2" y="214.1" width="6.4" height="6" fill="#FFFFFF" fill-opacity="0.39"/><rect x="421.6" y="214.1" width="6.4" height="6" fill="#FFFFFF" fill-opacity="0.76"/><rect x="432.9" y="214.1" width="6.4" height="6" fill="#FFFFFF" fill-opacity="0.49000000000000005"/><rect x="444.3" y="214.1" width="6.4" height="6" fill="#FFFFFF" fill-opacity="0.41"/><rect x="455.6" y="214.1" width="6.4" height="6" fill="#FFFFFF" fill-opacity="0.52"/><rect x="467" y="214.1" width="6.4" height="6" fill="#FFFFFF" fill-opacity="0.58"/><rect x="432.9" y="226.1" width="6.4" height="6" fill="#FFFFFF" fill-opacity="0.42000000000000004"/><rect x="444.3" y="226.1" width="6.4" height="6" fill="#FFFFFF" fill-opacity="0.62"/><rect x="410.2" y="238.1" width="6.4" height="6" fill="#FFFFFF" fill-opacity="0.71"/><rect x="455.6" y="238.1" width="6.4" height="6" fill="#FFFFFF" fill-opacity="0.52"/><rect x="476.6" y="99.5" width="59.5" height="150.5" fill="#8E0B10" fill-opacity="0.92"/><rect x="494.5" y="85.5" width="23.8" height="14" fill="#8E0B10" fill-opacity="0.92"/><rect x="479.1" y="109.5" width="6.9" height="6" fill="#FFFFFF" fill-opacity="0.48"/><rect x="514.8" y="109.5" width="6.9" height="6" fill="#FFFFFF" fill-opacity="0.49000000000000005"/><rect x="526.7" y="109.5" width="6.9" height="6" fill="#FFFFFF" fill-opacity="0.45"/><rect x="491" y="121.5" width="6.9" height="6" fill="#FFFFFF" fill-opacity="0.54"/><rect x="514.8" y="121.5" width="6.9" height="6" fill="#FFFFFF" fill-opacity="0.82"/><rect x="491" y="133.5" width="6.9" height="6" fill="#FFFFFF" fill-opacity="0.75"/><rect x="502.9" y="133.5" width="6.9" height="6" fill="#FFFFFF" fill-opacity="0.42000000000000004"/><rect x="526.7" y="133.5" width="6.9" height="6" fill="#FFFFFF" fill-opacity="0.63"/><rect x="491" y="145.5" width="6.9" height="6" fill="#FFFFFF" fill-opacity="0.76"/><rect x="502.9" y="145.5" width="6.9" height="6" fill="#FFFFFF" fill-opacity="0.82"/><rect x="526.7" y="145.5" width="6.9" height="6" fill="#FFFFFF" fill-opacity="0.72"/><rect x="502.9" y="157.5" width="6.9" height="6" fill="#FFFFFF" fill-opacity="0.71"/><rect x="479.1" y="169.5" width="6.9" height="6" fill="#FFFFFF" fill-opacity="0.38"/><rect x="491" y="169.5" width="6.9" height="6" fill="#FFFFFF" fill-opacity="0.5"/><rect x="502.9" y="169.5" width="6.9" height="6" fill="#FFFFFF" fill-opacity="0.36"/><rect x="526.7" y="169.5" width="6.9" height="6" fill="#FFFFFF" fill-opacity="0.5"/><rect x="479.1" y="181.5" width="6.9" height="6" fill="#FFFFFF" fill-opacity="0.79"/><rect x="491" y="181.5" width="6.9" height="6" fill="#FFFFFF" fill-opacity="0.49000000000000005"/><rect x="502.9" y="181.5" width="6.9" height="6" fill="#FFFFFF" fill-opacity="0.48"/><rect x="514.8" y="181.5" width="6.9" height="6" fill="#FFFFFF" fill-opacity="0.48"/><rect x="526.7" y="181.5" width="6.9" height="6" fill="#FFFFFF" fill-opacity="0.74"/><rect x="526.7" y="193.5" width="6.9" height="6" fill="#FFFFFF" fill-opacity="0.45"/><rect x="479.1" y="205.5" width="6.9" height="6" fill="#FFFFFF" fill-opacity="0.78"/><rect x="514.8" y="205.5" width="6.9" height="6" fill="#FFFFFF" fill-opacity="0.39"/><rect x="526.7" y="205.5" width="6.9" height="6" fill="#FFFFFF" fill-opacity="0.7"/><rect x="491" y="217.5" width="6.9" height="6" fill="#FFFFFF" fill-opacity="0.74"/><rect x="502.9" y="217.5" width="6.9" height="6" fill="#FFFFFF" fill-opacity="0.5700000000000001"/><rect x="479.1" y="229.5" width="6.9" height="6" fill="#FFFFFF" fill-opacity="0.41"/><rect x="491" y="229.5" width="6.9" height="6" fill="#FFFFFF" fill-opacity="0.6"/><rect x="502.9" y="229.5" width="6.9" height="6" fill="#FFFFFF" fill-opacity="0.43"/><rect x="514.8" y="229.5" width="6.9" height="6" fill="#FFFFFF" fill-opacity="0.67"/><rect x="479.1" y="241.5" width="6.9" height="6" fill="#FFFFFF" fill-opacity="0.49000000000000005"/><rect x="491" y="241.5" width="6.9" height="6" fill="#FFFFFF" fill-opacity="0.35"/><rect x="514.8" y="241.5" width="6.9" height="6" fill="#FFFFFF" fill-opacity="0.8300000000000001"/><rect x="538.6" y="137.5" width="53" height="112.5" fill="#8E0B10" fill-opacity="0.92"/><rect x="564" y="97.5" width="3" height="40" fill="#8E0B10" fill-opacity="0.92"/><rect x="554.3" y="147.5" width="8.2" height="6" fill="#FFFFFF" fill-opacity="0.78"/><rect x="580.8" y="147.5" width="8.2" height="6" fill="#FFFFFF" fill-opacity="0.36"/><rect x="541.1" y="159.5" width="8.2" height="6" fill="#FFFFFF" fill-opacity="0.61"/><rect x="580.8" y="159.5" width="8.2" height="6" fill="#FFFFFF" fill-opacity="0.5599999999999999"/><rect x="541.1" y="171.5" width="8.2" height="6" fill="#FFFFFF" fill-opacity="0.78"/><rect x="567.5" y="171.5" width="8.2" height="6" fill="#FFFFFF" fill-opacity="0.6599999999999999"/><rect x="567.5" y="183.5" width="8.2" height="6" fill="#FFFFFF" fill-opacity="0.51"/><rect x="580.8" y="183.5" width="8.2" height="6" fill="#FFFFFF" fill-opacity="0.65"/><rect x="554.3" y="195.5" width="8.2" height="6" fill="#FFFFFF" fill-opacity="0.79"/><rect x="580.8" y="195.5" width="8.2" height="6" fill="#FFFFFF" fill-opacity="0.85"/><rect x="567.5" y="207.5" width="8.2" height="6" fill="#FFFFFF" fill-opacity="0.39"/><rect x="580.8" y="207.5" width="8.2" height="6" fill="#FFFFFF" fill-opacity="0.6"/><rect x="541.1" y="219.5" width="8.2" height="6" fill="#FFFFFF" fill-opacity="0.37"/><rect x="567.5" y="219.5" width="8.2" height="6" fill="#FFFFFF" fill-opacity="0.73"/><rect x="580.8" y="219.5" width="8.2" height="6" fill="#FFFFFF" fill-opacity="0.6799999999999999"/><rect x="541.1" y="231.5" width="8.2" height="6" fill="#FFFFFF" fill-opacity="0.62"/><rect x="567.5" y="231.5" width="8.2" height="6" fill="#FFFFFF" fill-opacity="0.6900000000000001"/><rect x="580.8" y="231.5" width="8.2" height="6" fill="#FFFFFF" fill-opacity="0.36"/><rect x="598.3" y="100.8" width="67.4" height="149.2" fill="#8E0B10" fill-opacity="0.92"/><rect x="623.3" y="110.8" width="6.2" height="6" fill="#FFFFFF" fill-opacity="0.67"/><rect x="634.5" y="110.8" width="6.2" height="6" fill="#FFFFFF" fill-opacity="0.67"/><rect x="645.7" y="110.8" width="6.2" height="6" fill="#FFFFFF" fill-opacity="0.82"/><rect x="623.3" y="122.8" width="6.2" height="6" fill="#FFFFFF" fill-opacity="0.4"/><rect x="634.5" y="122.8" width="6.2" height="6" fill="#FFFFFF" fill-opacity="0.5599999999999999"/><rect x="600.8" y="134.8" width="6.2" height="6" fill="#FFFFFF" fill-opacity="0.49000000000000005"/><rect x="634.5" y="134.8" width="6.2" height="6" fill="#FFFFFF" fill-opacity="0.36"/><rect x="645.7" y="134.8" width="6.2" height="6" fill="#FFFFFF" fill-opacity="0.6599999999999999"/><rect x="657" y="134.8" width="6.2" height="6" fill="#FFFFFF" fill-opacity="0.8300000000000001"/><rect x="600.8" y="146.8" width="6.2" height="6" fill="#FFFFFF" fill-opacity="0.5700000000000001"/><rect x="612" y="146.8" width="6.2" height="6" fill="#FFFFFF" fill-opacity="0.58"/><rect x="623.3" y="146.8" width="6.2" height="6" fill="#FFFFFF" fill-opacity="0.64"/><rect x="657" y="146.8" width="6.2" height="6" fill="#FFFFFF" fill-opacity="0.45"/><rect x="612" y="158.8" width="6.2" height="6" fill="#FFFFFF" fill-opacity="0.47000000000000003"/><rect x="645.7" y="158.8" width="6.2" height="6" fill="#FFFFFF" fill-opacity="0.5599999999999999"/><rect x="657" y="158.8" width="6.2" height="6" fill="#FFFFFF" fill-opacity="0.64"/><rect x="612" y="170.8" width="6.2" height="6" fill="#FFFFFF" fill-opacity="0.85"/><rect x="623.3" y="170.8" width="6.2" height="6" fill="#FFFFFF" fill-opacity="0.67"/><rect x="634.5" y="170.8" width="6.2" height="6" fill="#FFFFFF" fill-opacity="0.5"/><rect x="600.8" y="182.8" width="6.2" height="6" fill="#FFFFFF" fill-opacity="0.67"/><rect x="657" y="182.8" width="6.2" height="6" fill="#FFFFFF" fill-opacity="0.82"/><rect x="612" y="194.8" width="6.2" height="6" fill="#FFFFFF" fill-opacity="0.64"/><rect x="623.3" y="194.8" width="6.2" height="6" fill="#FFFFFF" fill-opacity="0.67"/><rect x="600.8" y="206.8" width="6.2" height="6" fill="#FFFFFF" fill-opacity="0.51"/><rect x="623.3" y="206.8" width="6.2" height="6" fill="#FFFFFF" fill-opacity="0.76"/><rect x="634.5" y="206.8" width="6.2" height="6" fill="#FFFFFF" fill-opacity="0.62"/><rect x="645.7" y="206.8" width="6.2" height="6" fill="#FFFFFF" fill-opacity="0.6"/><rect x="612" y="218.8" width="6.2" height="6" fill="#FFFFFF" fill-opacity="0.39"/><rect x="623.3" y="218.8" width="6.2" height="6" fill="#FFFFFF" fill-opacity="0.8099999999999999"/><rect x="645.7" y="218.8" width="6.2" height="6" fill="#FFFFFF" fill-opacity="0.85"/><rect x="600.8" y="230.8" width="6.2" height="6" fill="#FFFFFF" fill-opacity="0.35"/><rect x="634.5" y="230.8" width="6.2" height="6" fill="#FFFFFF" fill-opacity="0.8300000000000001"/><rect x="645.7" y="230.8" width="6.2" height="6" fill="#FFFFFF" fill-opacity="0.4"/><rect x="665.7" y="123.9" width="69.1" height="126.1" fill="#8E0B10" fill-opacity="0.92"/><rect x="691.2" y="133.9" width="6.5" height="6" fill="#FFFFFF" fill-opacity="0.6799999999999999"/><rect x="714.3" y="133.9" width="6.5" height="6" fill="#FFFFFF" fill-opacity="0.77"/><rect x="679.7" y="145.9" width="6.5" height="6" fill="#FFFFFF" fill-opacity="0.36"/><rect x="691.2" y="145.9" width="6.5" height="6" fill="#FFFFFF" fill-opacity="0.4"/><rect x="725.8" y="145.9" width="6.5" height="6" fill="#FFFFFF" fill-opacity="0.52"/><rect x="668.2" y="157.9" width="6.5" height="6" fill="#FFFFFF" fill-opacity="0.82"/><rect x="679.7" y="157.9" width="6.5" height="6" fill="#FFFFFF" fill-opacity="0.53"/><rect x="702.7" y="169.9" width="6.5" height="6" fill="#FFFFFF" fill-opacity="0.48"/><rect x="691.2" y="181.9" width="6.5" height="6" fill="#FFFFFF" fill-opacity="0.35"/><rect x="725.8" y="181.9" width="6.5" height="6" fill="#FFFFFF" fill-opacity="0.6799999999999999"/><rect x="668.2" y="193.9" width="6.5" height="6" fill="#FFFFFF" fill-opacity="0.6900000000000001"/><rect x="725.8" y="193.9" width="6.5" height="6" fill="#FFFFFF" fill-opacity="0.73"/><rect x="668.2" y="205.9" width="6.5" height="6" fill="#FFFFFF" fill-opacity="0.76"/><rect x="691.2" y="205.9" width="6.5" height="6" fill="#FFFFFF" fill-opacity="0.47000000000000003"/><rect x="702.7" y="205.9" width="6.5" height="6" fill="#FFFFFF" fill-opacity="0.7"/><rect x="714.3" y="205.9" width="6.5" height="6" fill="#FFFFFF" fill-opacity="0.76"/><rect x="725.8" y="205.9" width="6.5" height="6" fill="#FFFFFF" fill-opacity="0.43"/><rect x="668.2" y="217.9" width="6.5" height="6" fill="#FFFFFF" fill-opacity="0.6799999999999999"/><rect x="679.7" y="217.9" width="6.5" height="6" fill="#FFFFFF" fill-opacity="0.79"/><rect x="702.7" y="217.9" width="6.5" height="6" fill="#FFFFFF" fill-opacity="0.47000000000000003"/><rect x="668.2" y="229.9" width="6.5" height="6" fill="#FFFFFF" fill-opacity="0.5900000000000001"/><rect x="679.7" y="241.9" width="6.5" height="6" fill="#FFFFFF" fill-opacity="0.72"/><rect x="691.2" y="241.9" width="6.5" height="6" fill="#FFFFFF" fill-opacity="0.48"/><rect x="702.7" y="241.9" width="6.5" height="6" fill="#FFFFFF" fill-opacity="0.48"/><rect x="725.8" y="241.9" width="6.5" height="6" fill="#FFFFFF" fill-opacity="0.74"/><rect x="735.6" y="59.3" width="37.2" height="190.7" fill="#8E0B10" fill-opacity="0.92"/><rect x="738.1" y="69.3" width="7.4" height="6" fill="#FFFFFF" fill-opacity="0.75"/><rect x="750.5" y="69.3" width="7.4" height="6" fill="#FFFFFF" fill-opacity="0.48"/><rect x="762.9" y="93.3" width="7.4" height="6" fill="#FFFFFF" fill-opacity="0.74"/><rect x="750.5" y="105.3" width="7.4" height="6" fill="#FFFFFF" fill-opacity="0.78"/><rect x="762.9" y="105.3" width="7.4" height="6" fill="#FFFFFF" fill-opacity="0.42000000000000004"/><rect x="738.1" y="117.3" width="7.4" height="6" fill="#FFFFFF" fill-opacity="0.62"/><rect x="750.5" y="117.3" width="7.4" height="6" fill="#FFFFFF" fill-opacity="0.67"/><rect x="738.1" y="129.3" width="7.4" height="6" fill="#FFFFFF" fill-opacity="0.63"/><rect x="762.9" y="129.3" width="7.4" height="6" fill="#FFFFFF" fill-opacity="0.71"/><rect x="762.9" y="141.3" width="7.4" height="6" fill="#FFFFFF" fill-opacity="0.63"/><rect x="738.1" y="153.3" width="7.4" height="6" fill="#FFFFFF" fill-opacity="0.52"/><rect x="750.5" y="153.3" width="7.4" height="6" fill="#FFFFFF" fill-opacity="0.6599999999999999"/><rect x="738.1" y="165.3" width="7.4" height="6" fill="#FFFFFF" fill-opacity="0.36"/><rect x="762.9" y="165.3" width="7.4" height="6" fill="#FFFFFF" fill-opacity="0.45999999999999996"/><rect x="750.5" y="177.3" width="7.4" height="6" fill="#FFFFFF" fill-opacity="0.71"/><rect x="762.9" y="177.3" width="7.4" height="6" fill="#FFFFFF" fill-opacity="0.44000000000000006"/><rect x="738.1" y="189.3" width="7.4" height="6" fill="#FFFFFF" fill-opacity="0.52"/><rect x="762.9" y="189.3" width="7.4" height="6" fill="#FFFFFF" fill-opacity="0.8099999999999999"/><rect x="762.9" y="201.3" width="7.4" height="6" fill="#FFFFFF" fill-opacity="0.5599999999999999"/><rect x="738.1" y="213.3" width="7.4" height="6" fill="#FFFFFF" fill-opacity="0.79"/><rect x="750.5" y="213.3" width="7.4" height="6" fill="#FFFFFF" fill-opacity="0.76"/><rect x="738.1" y="225.3" width="7.4" height="6" fill="#FFFFFF" fill-opacity="0.73"/><rect x="750.5" y="237.3" width="7.4" height="6" fill="#FFFFFF" fill-opacity="0.41"/><rect x="775.1" y="167.1" width="41.1" height="82.9" fill="#8E0B10" fill-opacity="0.92"/><rect x="787.4" y="153.1" width="16.4" height="14" fill="#8E0B10" fill-opacity="0.92"/><rect x="777.6" y="177.1" width="8.7" height="6" fill="#FFFFFF" fill-opacity="0.41"/><rect x="791.3" y="177.1" width="8.7" height="6" fill="#FFFFFF" fill-opacity="0.61"/><rect x="805" y="177.1" width="8.7" height="6" fill="#FFFFFF" fill-opacity="0.71"/><rect x="791.3" y="189.1" width="8.7" height="6" fill="#FFFFFF" fill-opacity="0.48"/><rect x="805" y="189.1" width="8.7" height="6" fill="#FFFFFF" fill-opacity="0.78"/><rect x="791.3" y="201.1" width="8.7" height="6" fill="#FFFFFF" fill-opacity="0.77"/><rect x="805" y="201.1" width="8.7" height="6" fill="#FFFFFF" fill-opacity="0.54"/><rect x="791.3" y="213.1" width="8.7" height="6" fill="#FFFFFF" fill-opacity="0.6799999999999999"/><rect x="777.6" y="225.1" width="8.7" height="6" fill="#FFFFFF" fill-opacity="0.76"/><rect x="805" y="225.1" width="8.7" height="6" fill="#FFFFFF" fill-opacity="0.45"/><rect x="819.3" y="155.7" width="39.3" height="94.3" fill="#8E0B10" fill-opacity="0.92"/><rect x="838.1" y="115.7" width="3" height="40" fill="#8E0B10" fill-opacity="0.92"/><rect x="821.8" y="165.7" width="8.1" height="6" fill="#FFFFFF" fill-opacity="0.79"/><rect x="821.8" y="201.7" width="8.1" height="6" fill="#FFFFFF" fill-opacity="0.52"/><rect x="834.9" y="201.7" width="8.1" height="6" fill="#FFFFFF" fill-opacity="0.8400000000000001"/><rect x="848" y="201.7" width="8.1" height="6" fill="#FFFFFF" fill-opacity="0.75"/><rect x="834.9" y="213.7" width="8.1" height="6" fill="#FFFFFF" fill-opacity="0.8099999999999999"/><rect x="848" y="213.7" width="8.1" height="6" fill="#FFFFFF" fill-opacity="0.6900000000000001"/><rect x="848" y="225.7" width="8.1" height="6" fill="#FFFFFF" fill-opacity="0.43"/><rect x="848" y="237.7" width="8.1" height="6" fill="#FFFFFF" fill-opacity="0.61"/><rect x="860.5" y="156.4" width="34.8" height="93.6" fill="#8E0B10" fill-opacity="0.92"/><rect x="870.9" y="142.4" width="13.9" height="14" fill="#8E0B10" fill-opacity="0.92"/><rect x="874.6" y="166.4" width="6.6" height="6" fill="#FFFFFF" fill-opacity="0.45999999999999996"/><rect x="863" y="178.4" width="6.6" height="6" fill="#FFFFFF" fill-opacity="0.8099999999999999"/><rect x="886.2" y="178.4" width="6.6" height="6" fill="#FFFFFF" fill-opacity="0.49000000000000005"/><rect x="863" y="190.4" width="6.6" height="6" fill="#FFFFFF" fill-opacity="0.35"/><rect x="874.6" y="190.4" width="6.6" height="6" fill="#FFFFFF" fill-opacity="0.78"/><rect x="886.2" y="190.4" width="6.6" height="6" fill="#FFFFFF" fill-opacity="0.72"/><rect x="863" y="202.4" width="6.6" height="6" fill="#FFFFFF" fill-opacity="0.38"/><rect x="863" y="214.4" width="6.6" height="6" fill="#FFFFFF" fill-opacity="0.45999999999999996"/><rect x="874.6" y="214.4" width="6.6" height="6" fill="#FFFFFF" fill-opacity="0.67"/><rect x="886.2" y="226.4" width="6.6" height="6" fill="#FFFFFF" fill-opacity="0.8400000000000001"/><rect x="863" y="238.4" width="6.6" height="6" fill="#FFFFFF" fill-opacity="0.61"/><rect x="874.6" y="238.4" width="6.6" height="6" fill="#FFFFFF" fill-opacity="0.6799999999999999"/><rect x="886.2" y="238.4" width="6.6" height="6" fill="#FFFFFF" fill-opacity="0.55"/><rect x="902.4" y="89.1" width="56.9" height="160.9" fill="#8E0B10" fill-opacity="0.92"/><rect x="919.5" y="75.1" width="22.8" height="14" fill="#8E0B10" fill-opacity="0.92"/><rect x="927.7" y="99.1" width="6.4" height="6" fill="#FFFFFF" fill-opacity="0.5599999999999999"/><rect x="904.9" y="111.1" width="6.4" height="6" fill="#FFFFFF" fill-opacity="0.54"/><rect x="927.7" y="111.1" width="6.4" height="6" fill="#FFFFFF" fill-opacity="0.72"/><rect x="939.1" y="111.1" width="6.4" height="6" fill="#FFFFFF" fill-opacity="0.72"/><rect x="950.5" y="111.1" width="6.4" height="6" fill="#FFFFFF" fill-opacity="0.76"/><rect x="904.9" y="135.1" width="6.4" height="6" fill="#FFFFFF" fill-opacity="0.6599999999999999"/><rect x="939.1" y="135.1" width="6.4" height="6" fill="#FFFFFF" fill-opacity="0.77"/><rect x="904.9" y="147.1" width="6.4" height="6" fill="#FFFFFF" fill-opacity="0.77"/><rect x="939.1" y="147.1" width="6.4" height="6" fill="#FFFFFF" fill-opacity="0.62"/><rect x="950.5" y="147.1" width="6.4" height="6" fill="#FFFFFF" fill-opacity="0.47000000000000003"/><rect x="927.7" y="159.1" width="6.4" height="6" fill="#FFFFFF" fill-opacity="0.37"/><rect x="939.1" y="159.1" width="6.4" height="6" fill="#FFFFFF" fill-opacity="0.44000000000000006"/><rect x="950.5" y="159.1" width="6.4" height="6" fill="#FFFFFF" fill-opacity="0.5"/><rect x="904.9" y="171.1" width="6.4" height="6" fill="#FFFFFF" fill-opacity="0.38"/><rect x="916.3" y="171.1" width="6.4" height="6" fill="#FFFFFF" fill-opacity="0.5900000000000001"/><rect x="927.7" y="171.1" width="6.4" height="6" fill="#FFFFFF" fill-opacity="0.45999999999999996"/><rect x="939.1" y="171.1" width="6.4" height="6" fill="#FFFFFF" fill-opacity="0.37"/><rect x="904.9" y="183.1" width="6.4" height="6" fill="#FFFFFF" fill-opacity="0.82"/><rect x="916.3" y="183.1" width="6.4" height="6" fill="#FFFFFF" fill-opacity="0.47000000000000003"/><rect x="950.5" y="183.1" width="6.4" height="6" fill="#FFFFFF" fill-opacity="0.82"/><rect x="904.9" y="195.1" width="6.4" height="6" fill="#FFFFFF" fill-opacity="0.6599999999999999"/><rect x="939.1" y="195.1" width="6.4" height="6" fill="#FFFFFF" fill-opacity="0.6799999999999999"/><rect x="904.9" y="207.1" width="6.4" height="6" fill="#FFFFFF" fill-opacity="0.8300000000000001"/><rect x="916.3" y="207.1" width="6.4" height="6" fill="#FFFFFF" fill-opacity="0.39"/><rect x="927.7" y="207.1" width="6.4" height="6" fill="#FFFFFF" fill-opacity="0.5900000000000001"/><rect x="939.1" y="207.1" width="6.4" height="6" fill="#FFFFFF" fill-opacity="0.5900000000000001"/><rect x="950.5" y="207.1" width="6.4" height="6" fill="#FFFFFF" fill-opacity="0.78"/><rect x="916.3" y="219.1" width="6.4" height="6" fill="#FFFFFF" fill-opacity="0.73"/><rect x="927.7" y="219.1" width="6.4" height="6" fill="#FFFFFF" fill-opacity="0.6799999999999999"/><rect x="927.7" y="231.1" width="6.4" height="6" fill="#FFFFFF" fill-opacity="0.6599999999999999"/><rect x="959.6" y="161.9" width="67.3" height="88.1" fill="#8E0B10" fill-opacity="0.92"/><rect x="962.1" y="171.9" width="6.2" height="6" fill="#FFFFFF" fill-opacity="0.43"/><rect x="973.3" y="171.9" width="6.2" height="6" fill="#FFFFFF" fill-opacity="0.82"/><rect x="984.5" y="171.9" width="6.2" height="6" fill="#FFFFFF" fill-opacity="0.74"/><rect x="995.7" y="171.9" width="6.2" height="6" fill="#FFFFFF" fill-opacity="0.62"/><rect x="1006.9" y="171.9" width="6.2" height="6" fill="#FFFFFF" fill-opacity="0.82"/><rect x="962.1" y="183.9" width="6.2" height="6" fill="#FFFFFF" fill-opacity="0.58"/><rect x="984.5" y="183.9" width="6.2" height="6" fill="#FFFFFF" fill-opacity="0.53"/><rect x="1006.9" y="183.9" width="6.2" height="6" fill="#FFFFFF" fill-opacity="0.8099999999999999"/><rect x="1018.1" y="183.9" width="6.2" height="6" fill="#FFFFFF" fill-opacity="0.47000000000000003"/><rect x="973.3" y="195.9" width="6.2" height="6" fill="#FFFFFF" fill-opacity="0.44000000000000006"/><rect x="995.7" y="195.9" width="6.2" height="6" fill="#FFFFFF" fill-opacity="0.51"/><rect x="1006.9" y="195.9" width="6.2" height="6" fill="#FFFFFF" fill-opacity="0.42000000000000004"/><rect x="1018.1" y="195.9" width="6.2" height="6" fill="#FFFFFF" fill-opacity="0.58"/><rect x="962.1" y="207.9" width="6.2" height="6" fill="#FFFFFF" fill-opacity="0.42000000000000004"/><rect x="995.7" y="207.9" width="6.2" height="6" fill="#FFFFFF" fill-opacity="0.36"/><rect x="1006.9" y="207.9" width="6.2" height="6" fill="#FFFFFF" fill-opacity="0.82"/><rect x="995.7" y="219.9" width="6.2" height="6" fill="#FFFFFF" fill-opacity="0.45"/><rect x="1006.9" y="219.9" width="6.2" height="6" fill="#FFFFFF" fill-opacity="0.5900000000000001"/><rect x="1018.1" y="219.9" width="6.2" height="6" fill="#FFFFFF" fill-opacity="0.49000000000000005"/><rect x="962.1" y="231.9" width="6.2" height="6" fill="#FFFFFF" fill-opacity="0.41"/><rect x="973.3" y="231.9" width="6.2" height="6" fill="#FFFFFF" fill-opacity="0.45"/><rect x="984.5" y="231.9" width="6.2" height="6" fill="#FFFFFF" fill-opacity="0.79"/><rect x="1030.6" y="151.6" width="50.5" height="98.4" fill="#8E0B10" fill-opacity="0.92"/><rect x="1033.1" y="161.6" width="7.6" height="6" fill="#FFFFFF" fill-opacity="0.47000000000000003"/><rect x="1045.7" y="161.6" width="7.6" height="6" fill="#FFFFFF" fill-opacity="0.39"/><rect x="1058.4" y="161.6" width="7.6" height="6" fill="#FFFFFF" fill-opacity="0.6599999999999999"/><rect x="1071" y="161.6" width="7.6" height="6" fill="#FFFFFF" fill-opacity="0.5"/><rect x="1033.1" y="173.6" width="7.6" height="6" fill="#FFFFFF" fill-opacity="0.8"/><rect x="1033.1" y="185.6" width="7.6" height="6" fill="#FFFFFF" fill-opacity="0.52"/><rect x="1045.7" y="185.6" width="7.6" height="6" fill="#FFFFFF" fill-opacity="0.65"/><rect x="1058.4" y="185.6" width="7.6" height="6" fill="#FFFFFF" fill-opacity="0.73"/><rect x="1033.1" y="197.6" width="7.6" height="6" fill="#FFFFFF" fill-opacity="0.41"/><rect x="1071" y="197.6" width="7.6" height="6" fill="#FFFFFF" fill-opacity="0.5"/><rect x="1045.7" y="209.6" width="7.6" height="6" fill="#FFFFFF" fill-opacity="0.47000000000000003"/><rect x="1058.4" y="209.6" width="7.6" height="6" fill="#FFFFFF" fill-opacity="0.62"/><rect x="1033.1" y="221.6" width="7.6" height="6" fill="#FFFFFF" fill-opacity="0.47000000000000003"/><rect x="1045.7" y="221.6" width="7.6" height="6" fill="#FFFFFF" fill-opacity="0.42000000000000004"/><rect x="1033.1" y="233.6" width="7.6" height="6" fill="#FFFFFF" fill-opacity="0.61"/><rect x="1045.7" y="233.6" width="7.6" height="6" fill="#FFFFFF" fill-opacity="0.7"/><rect x="1082.6" y="118.2" width="52.3" height="131.8" fill="#8E0B10" fill-opacity="0.92"/><rect x="1111.3" y="128.2" width="8.1" height="6" fill="#FFFFFF" fill-opacity="0.8400000000000001"/><rect x="1111.3" y="140.2" width="8.1" height="6" fill="#FFFFFF" fill-opacity="0.54"/><rect x="1124.3" y="140.2" width="8.1" height="6" fill="#FFFFFF" fill-opacity="0.78"/><rect x="1085.1" y="152.2" width="8.1" height="6" fill="#FFFFFF" fill-opacity="0.8099999999999999"/><rect x="1124.3" y="152.2" width="8.1" height="6" fill="#FFFFFF" fill-opacity="0.4"/><rect x="1085.1" y="164.2" width="8.1" height="6" fill="#FFFFFF" fill-opacity="0.43"/><rect x="1098.2" y="164.2" width="8.1" height="6" fill="#FFFFFF" fill-opacity="0.78"/><rect x="1085.1" y="176.2" width="8.1" height="6" fill="#FFFFFF" fill-opacity="0.63"/><rect x="1111.3" y="176.2" width="8.1" height="6" fill="#FFFFFF" fill-opacity="0.74"/><rect x="1124.3" y="176.2" width="8.1" height="6" fill="#FFFFFF" fill-opacity="0.77"/><rect x="1085.1" y="188.2" width="8.1" height="6" fill="#FFFFFF" fill-opacity="0.8"/><rect x="1111.3" y="188.2" width="8.1" height="6" fill="#FFFFFF" fill-opacity="0.73"/><rect x="1124.3" y="188.2" width="8.1" height="6" fill="#FFFFFF" fill-opacity="0.53"/><rect x="1085.1" y="200.2" width="8.1" height="6" fill="#FFFFFF" fill-opacity="0.74"/><rect x="1098.2" y="200.2" width="8.1" height="6" fill="#FFFFFF" fill-opacity="0.6"/><rect x="1124.3" y="200.2" width="8.1" height="6" fill="#FFFFFF" fill-opacity="0.63"/><rect x="1085.1" y="212.2" width="8.1" height="6" fill="#FFFFFF" fill-opacity="0.82"/><rect x="1098.2" y="212.2" width="8.1" height="6" fill="#FFFFFF" fill-opacity="0.6599999999999999"/><rect x="1111.3" y="212.2" width="8.1" height="6" fill="#FFFFFF" fill-opacity="0.41"/><rect x="1098.2" y="224.2" width="8.1" height="6" fill="#FFFFFF" fill-opacity="0.8"/><rect x="1111.3" y="224.2" width="8.1" height="6" fill="#FFFFFF" fill-opacity="0.44000000000000006"/></g><rect width="1200" height="300" fill="url(#lf)"/><path d="M-20 300 L-20 250 C 300 170, 700 175, 900 215 C 1030 240, 1120 230, 1220 205 L1220 300 Z" fill="#111113"/><path d="M-20 276 C 300 198, 700 203, 900 243 C 1030 268, 1120 258, 1220 233" transform="translate(0 -5)" fill="none" stroke="#F4F2EE" stroke-width="8.5" stroke-dasharray="14 7" stroke-dashoffset="0"/><path d="M-20 276 C 300 198, 700 203, 900 243 C 1030 268, 1120 258, 1220 233" transform="translate(0 5)" fill="none" stroke="#F4F2EE" stroke-width="8.5" stroke-dasharray="14 7" stroke-dashoffset="10"/><rect x="89.9" y="120.5" width="385" height="3" fill="#D7141A" fill-opacity="0.5599999999999999" transform="skewX(-20)"/><rect x="477.2" y="77.5" width="411.2" height="1.5" fill="#111113" fill-opacity="0.47000000000000003" transform="skewX(-20)"/><rect x="690.1" y="49.5" width="182.3" height="2.5" fill="#D7141A" fill-opacity="0.26" transform="skewX(-20)"/><rect x="-30.8" y="140.5" width="395" height="3.4" fill="#D7141A" fill-opacity="0.39" transform="skewX(-20)"/><rect x="567.6" y="75.3" width="255.5" height="2.5" fill="#111113" fill-opacity="0.32" transform="skewX(-20)"/><rect x="204.7" y="85.5" width="228.9" height="2.1" fill="#111113" fill-opacity="0.52" transform="skewX(-20)"/><rect x="89.1" y="190.1" width="367.7" height="2.3" fill="#111113" fill-opacity="0.5900000000000001" transform="skewX(-20)"/><rect x="699.5" y="121.9" width="304.6" height="1.8" fill="#111113" fill-opacity="0.36" transform="skewX(-20)"/><rect x="223" y="108.2" width="208.4" height="1.6" fill="#D7141A" fill-opacity="0.49000000000000005" transform="skewX(-20)"/></svg>